<mxfile host="app.diagrams.net" modified="2022-06-10T10:11:02.725Z" agent="5.0 (Windows NT 10.0; Win64; x64) AppleWebKit/537.36 (KHTML, like Gecko) Chrome/102.0.5005.63 Safari/537.36 Edg/102.0.1245.33" etag="5AZ1kfCELLsPdy51vTGq" version="19.0.3" type="github">
  <diagram id="PTmoqUxbT05K0nK-wioG" name="Page-1">
    <mxGraphModel dx="1422" dy="794" grid="1" gridSize="10" guides="1" tooltips="1" connect="1" arrows="1" fold="1" page="1" pageScale="1" pageWidth="827" pageHeight="1169" math="0" shadow="0">
      <root>
        <mxCell id="0" />
        <mxCell id="1" parent="0" />
        <mxCell id="1MkPtm8OCyuWijVGDbnE-8" value="" style="edgeStyle=orthogonalEdgeStyle;rounded=0;orthogonalLoop=1;jettySize=auto;html=1;" edge="1" parent="1" source="1MkPtm8OCyuWijVGDbnE-1" target="1MkPtm8OCyuWijVGDbnE-7">
          <mxGeometry relative="1" as="geometry" />
        </mxCell>
        <mxCell id="1MkPtm8OCyuWijVGDbnE-1" value="类设计" style="rounded=0;whiteSpace=wrap;html=1;" vertex="1" parent="1">
          <mxGeometry x="320" y="100" width="120" height="60" as="geometry" />
        </mxCell>
        <mxCell id="1MkPtm8OCyuWijVGDbnE-10" value="" style="edgeStyle=orthogonalEdgeStyle;rounded=0;orthogonalLoop=1;jettySize=auto;html=1;" edge="1" parent="1" source="1MkPtm8OCyuWijVGDbnE-7" target="1MkPtm8OCyuWijVGDbnE-9">
          <mxGeometry relative="1" as="geometry" />
        </mxCell>
        <mxCell id="1MkPtm8OCyuWijVGDbnE-7" value="component" style="rounded=0;whiteSpace=wrap;html=1;" vertex="1" parent="1">
          <mxGeometry x="320" y="240" width="120" height="60" as="geometry" />
        </mxCell>
        <mxCell id="1MkPtm8OCyuWijVGDbnE-9" value="Manager" style="whiteSpace=wrap;html=1;rounded=0;" vertex="1" parent="1">
          <mxGeometry x="200" y="380" width="120" height="60" as="geometry" />
        </mxCell>
        <mxCell id="1MkPtm8OCyuWijVGDbnE-11" value="helper" style="rounded=0;whiteSpace=wrap;html=1;" vertex="1" parent="1">
          <mxGeometry x="430" y="380" width="120" height="60" as="geometry" />
        </mxCell>
        <mxCell id="1MkPtm8OCyuWijVGDbnE-14" value="" style="endArrow=classic;html=1;rounded=0;exitX=0;exitY=0.5;exitDx=0;exitDy=0;" edge="1" parent="1" source="1MkPtm8OCyuWijVGDbnE-11" target="1MkPtm8OCyuWijVGDbnE-9">
          <mxGeometry width="50" height="50" relative="1" as="geometry">
            <mxPoint x="390" y="310" as="sourcePoint" />
            <mxPoint x="440" y="260" as="targetPoint" />
          </mxGeometry>
        </mxCell>
      </root>
    </mxGraphModel>
  </diagram>
</mxfile>
